<svg id="visual" viewBox="0 0 900 600" width="900" height="600" xmlns="http://www.w3.org/2000/svg" xmlns:xlink="http://www.w3.org/1999/xlink" version="1.1"><rect x="0" y="0" width="900" height="600" fill="#140021"></rect><path d="M0 216L75 216L75 255L150 255L150 281L225 281L225 295L300 295L300 227L375 227L375 212L450 212L450 285L525 285L525 215L600 215L600 228L675 228L675 265L750 265L750 311L825 311L825 219L900 219L900 207L900 601L900 601L825 601L825 601L750 601L750 601L675 601L675 601L600 601L600 601L525 601L525 601L450 601L450 601L375 601L375 601L300 601L300 601L225 601L225 601L150 601L150 601L75 601L75 601L0 601Z" fill="#9900ff"></path><path d="M0 274L75 274L75 375L150 375L150 287L225 287L225 355L300 355L300 366L375 366L375 368L450 368L450 257L525 257L525 287L600 287L600 383L675 383L675 264L750 264L750 315L825 315L825 389L900 389L900 291L900 601L900 601L825 601L825 601L750 601L750 601L675 601L675 601L600 601L600 601L525 601L525 601L450 601L450 601L375 601L375 601L300 601L300 601L225 601L225 601L150 601L150 601L75 601L75 601L0 601Z" fill="#8b00e8"></path><path d="M0 332L75 332L75 332L150 332L150 350L225 350L225 403L300 403L300 319L375 319L375 359L450 359L450 396L525 396L525 388L600 388L600 331L675 331L675 354L750 354L750 397L825 397L825 433L900 433L900 403L900 601L900 601L825 601L825 601L750 601L750 601L675 601L675 601L600 601L600 601L525 601L525 601L450 601L450 601L375 601L375 601L300 601L300 601L225 601L225 601L150 601L150 601L75 601L75 601L0 601Z" fill="#7e00d1"></path><path d="M0 452L75 452L75 449L150 449L150 417L225 417L225 405L300 405L300 446L375 446L375 396L450 396L450 435L525 435L525 453L600 453L600 398L675 398L675 393L750 393L750 437L825 437L825 483L900 483L900 394L900 601L900 601L825 601L825 601L750 601L750 601L675 601L675 601L600 601L600 601L525 601L525 601L450 601L450 601L375 601L375 601L300 601L300 601L225 601L225 601L150 601L150 601L75 601L75 601L0 601Z" fill="#7000bb"></path><path d="M0 518L75 518L75 489L150 489L150 432L225 432L225 458L300 458L300 536L375 536L375 493L450 493L450 465L525 465L525 455L600 455L600 518L675 518L675 533L750 533L750 440L825 440L825 490L900 490L900 530L900 601L900 601L825 601L825 601L750 601L750 601L675 601L675 601L600 601L600 601L525 601L525 601L450 601L450 601L375 601L375 601L300 601L300 601L225 601L225 601L150 601L150 601L75 601L75 601L0 601Z" fill="#6300a5"></path><path d="M0 495L75 495L75 494L150 494L150 510L225 510L225 531L300 531L300 557L375 557L375 576L450 576L450 585L525 585L525 561L600 561L600 526L675 526L675 567L750 567L750 520L825 520L825 541L900 541L900 582L900 601L900 601L825 601L825 601L750 601L750 601L675 601L675 601L600 601L600 601L525 601L525 601L450 601L450 601L375 601L375 601L300 601L300 601L225 601L225 601L150 601L150 601L75 601L75 601L0 601Z" fill="#560090"></path></svg>