<svg id="visual" viewBox="0 0 900 600" width="900" height="600" xmlns="http://www.w3.org/2000/svg" xmlns:xlink="http://www.w3.org/1999/xlink" version="1.1"><path d="M0 37L16.7 38C33.3 39 66.7 41 100 49C133.3 57 166.7 71 200 74C233.3 77 266.7 69 300 68C333.3 67 366.7 73 400 77C433.3 81 466.7 83 500 75C533.3 67 566.7 49 600 42C633.3 35 666.7 39 700 38C733.3 37 766.7 31 800 28C833.3 25 866.7 25 883.3 25L900 25L900 0L883.3 0C866.7 0 833.3 0 800 0C766.7 0 733.3 0 700 0C666.7 0 633.3 0 600 0C566.7 0 533.3 0 500 0C466.7 0 433.3 0 400 0C366.7 0 333.3 0 300 0C266.7 0 233.3 0 200 0C166.7 0 133.3 0 100 0C66.7 0 33.3 0 16.7 0L0 0Z" fill="#6198ff"></path><path d="M0 223L16.7 209C33.3 195 66.7 167 100 154C133.3 141 166.7 143 200 156C233.3 169 266.7 193 300 216C333.3 239 366.7 261 400 275C433.3 289 466.7 295 500 283C533.3 271 566.7 241 600 232C633.3 223 666.7 235 700 231C733.3 227 766.7 207 800 208C833.3 209 866.7 231 883.3 242L900 253L900 23L883.3 23C866.7 23 833.3 23 800 26C766.7 29 733.3 35 700 36C666.7 37 633.3 33 600 40C566.7 47 533.3 65 500 73C466.7 81 433.3 79 400 75C366.7 71 333.3 65 300 66C266.7 67 233.3 75 200 72C166.7 69 133.3 55 100 47C66.7 39 33.3 37 16.7 36L0 35Z" fill="#4385ff"></path><path d="M0 355L16.7 360C33.3 365 66.7 375 100 371C133.3 367 166.7 349 200 355C233.3 361 266.7 391 300 398C333.3 405 366.7 389 400 390C433.3 391 466.7 409 500 406C533.3 403 566.7 379 600 370C633.3 361 666.7 367 700 372C733.3 377 766.7 381 800 372C833.3 363 866.7 341 883.3 330L900 319L900 251L883.3 240C866.7 229 833.3 207 800 206C766.7 205 733.3 225 700 229C666.7 233 633.3 221 600 230C566.7 239 533.3 269 500 281C466.7 293 433.3 287 400 273C366.7 259 333.3 237 300 214C266.7 191 233.3 167 200 154C166.7 141 133.3 139 100 152C66.7 165 33.3 193 16.7 207L0 221Z" fill="#2071ff"></path><path d="M0 439L16.7 451C33.3 463 66.7 487 100 488C133.3 489 166.7 467 200 465C233.3 463 266.7 481 300 481C333.3 481 366.7 463 400 457C433.3 451 466.7 457 500 455C533.3 453 566.7 443 600 445C633.3 447 666.7 461 700 467C733.3 473 766.7 471 800 463C833.3 455 866.7 441 883.3 434L900 427L900 317L883.3 328C866.7 339 833.3 361 800 370C766.7 379 733.3 375 700 370C666.7 365 633.3 359 600 368C566.7 377 533.3 401 500 404C466.7 407 433.3 389 400 388C366.7 387 333.3 403 300 396C266.7 389 233.3 359 200 353C166.7 347 133.3 365 100 369C66.7 373 33.3 363 16.7 358L0 353Z" fill="#0061f1"></path><path d="M0 511L16.7 520C33.3 529 66.7 547 100 548C133.3 549 166.7 533 200 533C233.3 533 266.7 549 300 549C333.3 549 366.7 533 400 532C433.3 531 466.7 545 500 536C533.3 527 566.7 495 600 489C633.3 483 666.7 503 700 519C733.3 535 766.7 547 800 543C833.3 539 866.7 519 883.3 509L900 499L900 425L883.3 432C866.7 439 833.3 453 800 461C766.7 469 733.3 471 700 465C666.7 459 633.3 445 600 443C566.7 441 533.3 451 500 453C466.7 455 433.3 449 400 455C366.7 461 333.3 479 300 479C266.7 479 233.3 461 200 463C166.7 465 133.3 487 100 486C66.7 485 33.3 461 16.7 449L0 437Z" fill="#0056d6"></path><path d="M0 601L16.7 601C33.3 601 66.7 601 100 601C133.3 601 166.7 601 200 601C233.3 601 266.7 601 300 601C333.3 601 366.7 601 400 601C433.3 601 466.7 601 500 601C533.3 601 566.7 601 600 601C633.3 601 666.7 601 700 601C733.3 601 766.7 601 800 601C833.3 601 866.7 601 883.3 601L900 601L900 497L883.3 507C866.7 517 833.3 537 800 541C766.7 545 733.3 533 700 517C666.7 501 633.3 481 600 487C566.7 493 533.3 525 500 534C466.7 543 433.3 529 400 530C366.7 531 333.3 547 300 547C266.7 547 233.3 531 200 531C166.7 531 133.3 547 100 546C66.7 545 33.3 527 16.7 518L0 509Z" fill="#004cbb"></path></svg>