<svg id="visual" viewBox="0 0 900 600" width="900" height="600" xmlns="http://www.w3.org/2000/svg" xmlns:xlink="http://www.w3.org/1999/xlink" version="1.1"><path d="M0 25L75 55L150 43L225 43L300 25L375 55L450 43L525 55L600 85L675 55L750 31L825 55L900 73L900 0L825 0L750 0L675 0L600 0L525 0L450 0L375 0L300 0L225 0L150 0L75 0L0 0Z" fill="#00cc8e"></path><path d="M0 127L75 181L150 157L225 205L300 187L375 181L450 253L525 229L600 223L675 217L750 133L825 115L900 157L900 71L825 53L750 29L675 53L600 83L525 53L450 41L375 53L300 23L225 41L150 41L75 53L0 23Z" fill="#00c18c"></path><path d="M0 181L75 205L150 175L225 223L300 211L375 229L450 271L525 277L600 247L675 271L750 175L825 169L900 181L900 155L825 113L750 131L675 215L600 221L525 227L450 251L375 179L300 185L225 203L150 155L75 179L0 125Z" fill="#00b789"></path><path d="M0 253L75 235L150 217L225 319L300 295L375 295L450 307L525 361L600 289L675 301L750 217L825 259L900 277L900 179L825 167L750 173L675 269L600 245L525 275L450 269L375 227L300 209L225 221L150 173L75 203L0 179Z" fill="#00ac86"></path><path d="M0 277L75 289L150 253L225 379L300 349L375 367L450 355L525 397L600 319L675 343L750 277L825 289L900 313L900 275L825 257L750 215L675 299L600 287L525 359L450 305L375 293L300 293L225 317L150 215L75 233L0 251Z" fill="#00a282"></path><path d="M0 439L75 427L150 415L225 445L300 427L375 475L450 445L525 511L600 463L675 433L750 445L825 445L900 487L900 311L825 287L750 275L675 341L600 317L525 395L450 353L375 365L300 347L225 377L150 251L75 287L0 275Z" fill="#00977e"></path><path d="M0 553L75 559L150 541L225 565L300 547L375 577L450 535L525 547L600 565L675 559L750 559L825 559L900 559L900 485L825 443L750 443L675 431L600 461L525 509L450 443L375 473L300 425L225 443L150 413L75 425L0 437Z" fill="#008d79"></path><path d="M0 601L75 601L150 601L225 601L300 601L375 601L450 601L525 601L600 601L675 601L750 601L825 601L900 601L900 557L825 557L750 557L675 557L600 563L525 545L450 533L375 575L300 545L225 563L150 539L75 557L0 551Z" fill="#038373"></path></svg>